<?xml version="1.0" standalone="no"?>
<!DOCTYPE svg PUBLIC "-//W3C//DTD SVG 20010904//EN"
 "http://www.w3.org/TR/2001/REC-SVG-20010904/DTD/svg10.dtd">
<svg version="1.0" xmlns="http://www.w3.org/2000/svg"
 width="215.000000pt" height="80.000000pt" viewBox="0 0 215.000000 80.000000"
 preserveAspectRatio="xMidYMid meet">

<g transform="translate(0.000000,80.000000) scale(0.100000,-0.100000)"
fill="#e9d734" stroke="none">
<path d="M730 649 c-216 -97 -219 -383 -5 -491 121 -61 286 -1 350 129 69 140
14 292 -130 359 -65 31 -152 32 -215 3z m203 -118 c48 -30 70 -80 65 -148 -4
-48 -10 -60 -46 -96 -37 -37 -47 -41 -100 -45 -67 -5 -100 8 -146 57 -60 63
-43 186 31 232 67 42 129 42 196 0z"/>
<path d="M1305 651 c-91 -42 -104 -80 -105 -317 l-2 -189 46 -3 c25 -2 46 -2
46 0 1 2 5 88 10 191 10 219 16 237 80 237 27 0 47 -7 61 -21 20 -20 21 -28
15 -168 -4 -80 -7 -166 -8 -191 l-2 -45 49 0 50 0 8 180 c5 99 5 195 2 213 -3
18 -22 51 -42 72 -54 60 -133 76 -208 41z"/>
<path d="M150 597 c0 -35 3 -152 7 -260 l6 -197 49 0 48 0 0 95 0 95 41 0
c130 0 215 129 157 240 -36 68 -86 90 -210 90 l-98 0 0 -63z m212 -54 c21 -19
24 -61 6 -86 -15 -19 -64 -35 -90 -29 -15 3 -18 15 -18 68 l0 64 42 0 c24 0
49 -7 60 -17z"/>
<path d="M1813 636 c-78 -37 -138 -102 -159 -172 -37 -129 15 -256 131 -317
43 -23 165 -31 184 -12 5 6 11 66 13 135 l3 125 -64 3 c-35 2 -67 -1 -72 -5
-4 -4 -9 -26 -11 -48 -3 -35 0 -40 20 -43 18 -3 22 -10 22 -43 0 -21 -2 -39
-5 -39 -25 0 -78 35 -99 66 -87 129 53 310 197 255 21 -8 26 -6 31 12 3 12 6
38 6 58 0 30 -4 38 -22 43 -51 13 -124 5 -175 -18z"/>
</g>
</svg>
